<svg xmlns="http://www.w3.org/2000/svg" xmlns:xlink="http://www.w3.org/1999/xlink" viewBox="0 0 25 25">
<style type="text/css">
	.st0{fill:#646464;}
</style>
<g>
	<path class="st0" d="M23.5,21.1l0-0.1c-0.3-1.1-1.3-2.3-2.3-2.7l-3.3-1.4c-0.8-0.3-1.6-1.1-2-2c1.9-1.5,3.2-4.2,3.2-7.3C19,3.9,16.1,1,12.5,1
	S6,3.9,6,7.5c0,3.1,1.3,5.8,3.2,7.3c-0.4,0.8-1.2,1.6-2,2l-3.3,1.4c-1,0.4-2.1,1.7-2.3,2.7l0,0.1c-0.3,1.1,0.4,2.3,1.4,2.6
	c0,0,2.1,1.3,9.6,1.3c7.5,0,9.6-1.3,9.6-1.3C23.2,23.3,23.8,22.1,23.5,21.1z M7,7.5C7,4.5,9.5,2,12.5,2S18,4.5,18,7.5
	c0,4.1-2.5,7.5-5.5,7.5S7,11.6,7,7.5z M21.8,22.8l-0.2,0.1c-0.2,0.1-0.7,0.3-1.7,0.5c-1.8,0.4-4.2,0.6-7.4,0.6
	c-3.2,0-5.6-0.2-7.4-0.6c-1-0.2-1.5-0.4-1.7-0.5l-0.2-0.1c-0.6-0.2-0.9-0.9-0.8-1.5l0-0.1c0.2-0.8,1-1.7,1.7-2.1l3.3-1.4
	c1-0.4,1.9-1.3,2.5-2.3c0.8,0.4,1.6,0.6,2.5,0.6c0.9,0,1.7-0.2,2.5-0.6c0.6,1,1.5,1.9,2.5,2.3l3.3,1.4c0.7,0.3,1.6,1.3,1.7,2.1
	l0,0.1C22.7,21.9,22.3,22.6,21.8,22.8z"/>
</g>
</svg>