<svg xmlns="http://www.w3.org/2000/svg" xmlns:xlink="http://www.w3.org/1999/xlink" viewBox="0 0 25 25">
<style type="text/css">
	.st0{fill:#58bc9a;}
</style>
<g>
	<path class="st0" d="M12.5,16c3.7,0,6.5-3.9,6.5-8.5C19,3.9,16.1,1,12.5,1S6,3.9,6,7.5C6,12.1,8.8,16,12.5,16z"/>
	<path class="st0" d="M23.5,21.1l0-0.1c-0.3-1.1-1.3-2.3-2.3-2.7l-3.3-1.4c-0.5-0.2-1-0.6-1.5-1.1c-1.1,0.9-2.4,1.3-3.9,1.3
		c-1.4,0-2.8-0.5-3.9-1.3c-0.4,0.5-0.9,0.9-1.5,1.1l-3.3,1.4c-1,0.4-2.1,1.7-2.3,2.7l0,0.1c-0.3,1.1,0.4,2.3,1.4,2.6
		c0,0,2.1,1.3,9.6,1.3c7.5,0,9.6-1.3,9.6-1.3C23.2,23.3,23.8,22.1,23.5,21.1z"/>
</g>
</svg>