<svg xmlns="http://www.w3.org/2000/svg" xmlns:xlink="http://www.w3.org/1999/xlink" viewBox="0 0 25 25">
    <g stroke="none" stroke-width="1" fill="none" fill-rule="evenodd">
        <g id="Mobile-Portrait" transform="translate(-11.000000, -543.000000)" fill="#646464">
            <g id="2-25" transform="translate(9.000000, 541.000000)">
                <g id="icon_tab_pai">
                    <g id="Group" transform="translate(14.995689, 14.995689) rotate(-45.000000) translate(-14.995689, -14.995689) translate(5.495689, 3.995689)">
                        <path d="M3,10 C4.65685425,10 6,7.76142375 6,5 C6,2.23857625 4.65685425,7.28306304e-14 3,7.28306304e-14 C1.34314575,7.28306304e-14 1.77635684e-15,2.23857625 1.77635684e-15,5 C1.77635684e-15,7.76142375 1.34314575,10 3,10 L3,10 Z M3,9 C4.1045695,9 5,7.209139 5,5 C5,2.790861 4.1045695,1 3,1 C1.8954305,1 1,2.790861 1,5 C1,7.209139 1.8954305,9 3,9 L3,9 Z" id="Oval-41"></path>
                        <path d="M11.4013466,2.5 C11.9200607,1.00549657 12.8895765,-7.10542736e-15 14,-7.10542736e-15 C15.6568542,-7.10542736e-15 17,2.23857625 17,5 C17,7.76142375 15.6568542,10 14,10 C12.8895765,10 11.9200607,8.99450343 11.4013466,7.5 L12.4386573,7.5 C12.8051875,8.41446248 13.3684039,9 14,9 C15.1045695,9 16,7.209139 16,5 C16,2.790861 15.1045695,1 14,1 C13.3684039,1 12.8051875,1.58553752 12.4386573,2.5 L11.4013466,2.5 L11.4013466,2.5 Z" id="Oval-41"></path>
                        <path d="M8,5 C8,7.76142375 6.65685425,10 5,10 L3,10 L3,9 L5,9 C6.1045695,9 7,7.209139 7,5 C7,2.790861 6.1045695,1 5,1 L3,1 L3,-8.8817842e-15 L5,-8.8817842e-15 C6.65685425,-8.8817842e-15 8,2.23857625 8,5 Z" id="Oval-41"></path>
                        <path d="M19,5 C19,7.76142375 17.6568542,10 16,10 L14,10 L14,9 L16,9 C17.1045695,9 18,7.209139 18,5 C18,2.790861 17.1045695,1 16,1 L14,1 L14,-8.8817842e-15 L16,-8.8817842e-15 C17.6568542,-8.8817842e-15 19,2.23857625 19,5 Z" id="Oval-41"></path>
                        <path d="M13.5,2.40134659 C13.6470867,2.14609143 13.8178564,2 14,2 C14.5522847,2 15,3.34314575 15,5 C15,6.65685425 14.5522847,8 14,8 C13.8178564,8 13.6470867,7.85390857 13.5,7.59865341 C13.7989007,7.07993928 14,6.11042353 14,5 C14,3.88957647 13.7989007,2.92006072 13.5,2.40134659 L13.5,2.40134659 Z" id="Oval-45"></path>
                        <rect id="Rectangle-68" x="7" y="2" width="7" height="1"></rect>
                        <rect id="Rectangle-68" x="7" y="7" width="7" height="1"></rect>
                        <path d="M8,8 L9,7 L9,20.992516 C9,20.9996211 10.0010434,21 10.0010434,21 C10.0008396,21 10,7 10,7 L11,8 L8,8 L8,8 L8,8 Z M11,7 L11,20.992516 C11,21.5489341 10.5573397,22 10.0010434,22 L8.99895656,22 C8.44724809,22 8,21.5510798 8,20.992516 L8,7 L11,7 L11,7 L11,7 Z" id="Rectangle-71"></path>
                    </g>
                </g>
            </g>
        </g>
    </g>
</svg>