<svg xmlns="http://www.w3.org/2000/svg" xmlns:xlink="http://www.w3.org/1999/xlink" viewBox="0 0 25 25">
<style type="text/css">
	.st0{fill:#646464;}
</style>
<g>
	<path class="st0" d="M22.7,12.9l-8.5-9.7c-0.9-1.1-2.5-1.1-3.4,0l-8.5,9.7c-0.5,0.6-0.5,1.6,0.1,2.1l0.1,0.1C3,15.7,4,15.7,4.5,15.1L5,14.6V22
		c0,1.1,0.9,2,2,2h3h1h3h1h3c1.1,0,2-0.9,2-2v-7.4l0.5,0.5c0.6,0.6,1.5,0.6,2.1,0.1l0.1-0.1C23.2,14.5,23.3,13.5,22.7,12.9z M14,23
		h-3v-3c0-0.6,0.4-1,1-1h1c0.6,0,1,0.4,1,1V23z M19,22c0,0.5-0.4,1-1,1h-3v-3c0-1.1-0.9-2-2-2h-1c-1.1,0-2,0.9-2,2v3H7
		c-0.6,0-1-0.5-1-1v-8.5l6.5-7.2l6.5,7.2V22z M3.8,14.4c-0.2,0.2-0.5,0.2-0.6,0l-0.1-0.1c-0.2-0.2-0.2-0.6,0-0.8l8.5-9.7
		c0.5-0.6,1.4-0.6,1.9,0l8.5,9.7c0.2,0.2,0.2,0.6,0,0.8l-0.1,0.1c-0.2,0.2-0.5,0.2-0.7,0l-8.7-9.7"/>
	<path class="st0" d="M11,11v3h3v-3H11z M13,13h-1v-1h1V13z"/>
</g>
</svg>