<svg xmlns="http://www.w3.org/2000/svg" xmlns:xlink="http://www.w3.org/1999/xlink" viewBox="0 0 25 25">
    <g stroke="none" stroke-width="1" fill="none" fill-rule="evenodd">
        <g id="Mobile-Portrait" transform="translate(-11.000000, -583.000000)" fill="#58bc9a">
            <g id="2-25" transform="translate(9.000000, 541.000000)">
                <g id="icon_tab_paipin_selected" transform="translate(0.000000, 40.000000)">
                    <g id="Group" transform="translate(15.056349, 15.056349) rotate(-45.000000) translate(-15.056349, -15.056349) translate(5.056349, 4.056349)">
                        <ellipse id="Oval-110" cx="3.5" cy="5" rx="3" ry="5"></ellipse>
                        <path d="M4.5,10 L5.5,10 C7.15685425,10 8.5,7.76142375 8.5,5 C8.5,2.23857625 7.15685425,-2.48689958e-14 5.5,-2.48689958e-14 L4.50000001,-2.48689958e-14 C6.15685425,7.46867723e-09 7.5,2.23857626 7.5,5 C7.5,7.76142375 6.15685425,10 4.5,10 L4.5,10 Z" id="Oval-110"></path>
                        <path d="M15.5,10 L16.5,10 C18.1568542,10 19.5,7.76142375 19.5,5 C19.5,2.23857625 18.1568542,-2.30926389e-14 16.5,-2.30926389e-14 L15.5,-2.30926389e-14 C17.1568543,7.46867901e-09 18.5,2.23857626 18.5,5 C18.5,7.76142375 17.1568542,10 15.5,10 L15.5,10 Z" id="Oval-110"></path>
                        <path d="M8.90021971,8 L14.5,8 C15.0522847,8 15.5,6.65685425 15.5,5 C15.5,3.34314575 15.0522847,2 14.5,2 L8.90021971,2 C9.27683311,2.83566053 9.5,3.87439408 9.5,5 C9.5,6.12560592 9.27683311,7.16433947 8.90021971,8 L8.90021971,8 Z" id="Oval-117"></path>
                        <path d="M12.6997075,1 C13.2011539,0.372089484 13.8245051,-7.10542736e-15 14.5,-7.10542736e-15 C16.1568542,-7.10542736e-15 17.5,2.23857625 17.5,5 C17.5,7.76142375 16.1568542,10 14.5,10 C13.8245051,10 13.2011539,9.62791052 12.6997075,9 L14.5,9 C15.6045695,9 16.5,7.209139 16.5,5 C16.5,2.790861 15.6045695,1 14.5,1 L12.6997075,1 L12.6997075,1 Z" id="Oval-110"></path>
                        <rect id="Rectangle-161" x="8.5" y="9" width="3" height="13"></rect>
                    </g>
                </g>
            </g>
        </g>
    </g>
</svg>