<?xml version="1.0" encoding="UTF-8" standalone="no"?>
<svg xmlns="http://www.w3.org/2000/svg" xmlns:xlink="http://www.w3.org/1999/xlink" viewBox="0 0 25 25">
    <g id="Page-3" stroke="none" stroke-width="1" fill="none" fill-rule="evenodd">
        <g id="icon_tab_compass" fill="#646464">
            <g transform="translate(2.000000, 2.000000)">
                <path d="M20,10.5 C20,5.25329488 15.7467051,1 10.5,1 C5.25329488,1 1,5.25329488 1,10.5 C1,15.7467051 5.25329488,20 10.5,20 C15.7467051,20 20,15.7467051 20,10.5 L20,10.5 Z M0,10.5 C0,4.70101013 4.70101013,0 10.5,0 C16.2989899,0 21,4.70101013 21,10.5 C21,16.2989899 16.2989899,21 10.5,21 C4.70101013,21 0,16.2989899 0,10.5 L0,10.5 Z"></path>
                <path d="M11.5606602,11.5606602 C13.3284271,9.79289322 16.5104076,4.48959236 16.5104076,4.48959236 C16.5104076,4.48959236 11.2071068,7.67157288 9.43933983,9.43933983 C7.67157288,11.2071068 4.48959236,16.5104076 4.48959236,16.5104076 C4.48959236,16.5104076 9.79289322,13.3284271 11.5606602,11.5606602 L11.5606602,11.5606602 Z M10.5,11.5 C11.0522847,11.5 11.5,11.0522847 11.5,10.5 C11.5,9.94771525 11.0522847,9.5 10.5,9.5 C9.94771525,9.5 9.5,9.94771525 9.5,10.5 C9.5,11.0522847 9.94771525,11.5 10.5,11.5 L10.5,11.5 Z"></path>
            </g>
        </g>
    </g>
</svg>