<svg xmlns="http://www.w3.org/2000/svg" xmlns:xlink="http://www.w3.org/1999/xlink" viewBox="0 0 25 25">
<style type="text/css">
	.st0{fill:#58bc9a;}
</style>
<g>
	<path class="st0" d="M8.5,7.5C8.8,7.5,9,7.3,9,7V6.5C9,4.6,10.6,3,12.5,3S16,4.6,16,6.5V7c0,0.3,0.2,0.5,0.5,0.5S17,7.3,17,7V6.5
		C17,4,15,2,12.5,2S8,4,8,6.5V7C8,7.3,8.2,7.5,8.5,7.5z"/>
	<path class="st0" d="M23.7,21l-1.5-11c-0.1-1.1-1.2-2-2.3-2H5c-1.1,0-2.1,0.9-2.3,2L1.3,21c-0.1,1.1,0.6,2,1.7,2h19C23.1,23,23.9,22.1,23.7,21z
		 M15.5,19h-6C9.2,19,9,18.8,9,18.5C9,18.2,9.2,18,9.5,18h6c0.3,0,0.5,0.2,0.5,0.5C16,18.8,15.8,19,15.5,19z"/>
</g>
</svg>