<svg xmlns="http://www.w3.org/2000/svg" xmlns:xlink="http://www.w3.org/1999/xlink" viewBox="0 0 25 25">
<style type="text/css">
	.st0{fill:#58bc9a;}
</style>
<g>
	<path class="st0" d="M5,15.3V22c0,1.1,0.9,2,2,2h4v-3c0-0.6,0.4-1,1-1h1c0.6,0,1,0.4,1,1v3h4c1.1,0,2-0.9,2-2v-6.7L12.5,7L5,15.3z M14,14h-3v-3
		h3V14z"/>
	<path class="st0" d="M22.3,13.2l-8.5-9.7c-0.7-0.8-1.9-0.8-2.6,0l-8.5,9.7c-0.4,0.4-0.3,1.1,0,1.5l0.1,0.1c0.4,0.4,1,0.4,1.4,0l8.3-9.3l8.3,9.3
		c0.4,0.4,1,0.4,1.4,0l0.1-0.1C22.7,14.3,22.7,13.7,22.3,13.2z"/>
</g>
</svg>