<svg xmlns="http://www.w3.org/2000/svg" xmlns:xlink="http://www.w3.org/1999/xlink" viewBox="0 0 25 25">
    <g stroke="none" stroke-width="1" fill="none" fill-rule="evenodd">
        <g id="icon_tab_compass_selected" fill="#58bc9a">
            <g transform="translate(2.000000, 2.000000)">
                <path d="M10.5,21 C16.2989899,21 21,16.2989899 21,10.5 C21,4.70101013 16.2989899,0 10.5,0 C4.70101013,0 0,4.70101013 0,10.5 C0,16.2989899 4.70101013,21 10.5,21 L10.5,21 Z M11.5606602,11.5606602 C13.3284271,9.79289322 16.5104076,4.48959236 16.5104076,4.48959236 C16.5104076,4.48959236 11.2071068,7.67157288 9.43933983,9.43933983 C7.67157288,11.2071068 4.48959236,16.5104076 4.48959236,16.5104076 C4.48959236,16.5104076 9.79289322,13.3284271 11.5606602,11.5606602 L11.5606602,11.5606602 Z"></path>
                <circle id="Oval-83" cx="10.5" cy="10.5" r="1"></circle>
            </g>
        </g>
    </g>
</svg>